<svg width="3840" height="2160" viewBox="0 0 3840 2160" fill="none" xmlns="http://www.w3.org/2000/svg">
<path d="M0 0H3840V2160H0V0Z" fill="#FFA500"/>
<path d="M81.7535 174.158L201.511 105.016L261.608 234.269L220.519 276.529L163.657 290.821L81.7535 174.158ZM153.946 206.605L143.683 191.872L201.047 158.773L193.735 143.067L118.578 186.438L148.919 229.811L200.959 199.766L210.389 220.371L196.445 234.533L176.928 239.659L168.909 228.249L154.032 236.838L169.641 259.531L205.342 249.943L231.263 224.014L208.648 175.033L153.946 206.605Z" fill="black"/>
<path d="M315.754 174.158L435.511 105.016L495.608 234.269L454.519 276.529L397.657 290.821L315.754 174.158ZM387.946 206.605L377.684 191.872L435.047 158.773L427.735 143.067L352.578 186.438L382.919 229.811L434.959 199.766L444.389 220.371L430.445 234.533L410.928 239.659L402.909 228.249L388.032 236.838L403.641 259.531L439.342 249.943L465.263 224.014L442.648 175.033L387.946 206.605Z" fill="black"/>
<path d="M541.754 174.158L661.511 105.016L721.608 234.269L680.519 276.529L623.657 290.821L541.754 174.158ZM613.946 206.605L603.684 191.872L661.047 158.773L653.735 143.067L578.578 186.438L608.919 229.811L660.959 199.766L670.389 220.371L656.445 234.533L636.928 239.659L628.909 228.249L614.032 236.838L629.641 259.531L665.342 249.943L691.263 224.014L668.648 175.033L613.946 206.605Z" fill="black"/>
<path d="M775.754 174.158L895.511 105.016L955.608 234.269L914.519 276.529L857.657 290.821L775.754 174.158ZM847.946 206.605L837.684 191.872L895.047 158.773L887.735 143.067L812.578 186.438L842.919 229.811L894.959 199.766L904.389 220.371L890.445 234.533L870.928 239.659L862.909 228.249L848.032 236.838L863.641 259.531L899.342 249.943L925.263 224.014L902.648 175.033L847.946 206.605Z" fill="black"/>
<path d="M1009.75 174.158L1129.51 105.016L1189.61 234.269L1148.52 276.529L1091.66 290.821L1009.75 174.158ZM1081.95 206.605L1071.68 191.872L1129.05 158.773L1121.74 143.067L1046.58 186.438L1076.92 229.811L1128.96 199.766L1138.39 220.371L1124.44 234.533L1104.93 239.659L1096.91 228.249L1082.03 236.838L1097.64 259.531L1133.34 249.943L1159.26 224.014L1136.65 175.033L1081.95 206.605Z" fill="black"/>
<path d="M1243.75 174.158L1363.51 105.016L1423.61 234.269L1382.52 276.529L1325.66 290.821L1243.75 174.158ZM1315.95 206.605L1305.68 191.872L1363.05 158.773L1355.74 143.067L1280.58 186.438L1310.92 229.811L1362.96 199.766L1372.39 220.371L1358.44 234.533L1338.93 239.659L1330.91 228.249L1316.03 236.838L1331.64 259.531L1367.34 249.943L1393.26 224.014L1370.65 175.033L1315.95 206.605Z" fill="black"/>
<path d="M1469.75 174.158L1589.51 105.016L1649.61 234.269L1608.52 276.529L1551.66 290.821L1469.75 174.158ZM1541.95 206.605L1531.68 191.872L1589.05 158.773L1581.74 143.067L1506.58 186.438L1536.92 229.811L1588.96 199.766L1598.39 220.371L1584.44 234.533L1564.93 239.659L1556.91 228.249L1542.03 236.838L1557.64 259.531L1593.34 249.943L1619.26 224.014L1596.65 175.033L1541.95 206.605Z" fill="black"/>
<path d="M1703.75 174.158L1823.51 105.016L1883.61 234.269L1842.52 276.529L1785.66 290.821L1703.75 174.158ZM1775.95 206.605L1765.68 191.872L1823.05 158.773L1815.74 143.067L1740.58 186.438L1770.92 229.811L1822.96 199.766L1832.39 220.371L1818.44 234.533L1798.93 239.659L1790.91 228.249L1776.03 236.838L1791.64 259.531L1827.34 249.943L1853.26 224.014L1830.65 175.033L1775.95 206.605Z" fill="black"/>
<path d="M1937.75 174.158L2057.51 105.016L2117.61 234.269L2076.52 276.529L2019.66 290.821L1937.75 174.158ZM2009.95 206.605L1999.68 191.872L2057.05 158.773L2049.74 143.067L1974.58 186.438L2004.92 229.811L2056.96 199.766L2066.39 220.371L2052.44 234.533L2032.93 239.659L2024.91 228.249L2010.03 236.838L2025.64 259.531L2061.34 249.943L2087.26 224.014L2064.65 175.033L2009.95 206.605Z" fill="black"/>
<path d="M2171.75 174.158L2291.51 105.016L2351.61 234.269L2310.52 276.529L2253.66 290.821L2171.75 174.158ZM2243.95 206.605L2233.68 191.872L2291.05 158.773L2283.74 143.067L2208.58 186.438L2238.92 229.811L2290.96 199.766L2300.39 220.371L2286.44 234.533L2266.93 239.659L2258.91 228.249L2244.03 236.838L2259.64 259.531L2295.34 249.943L2321.26 224.014L2298.65 175.033L2243.95 206.605Z" fill="black"/>
<path d="M2397.75 174.158L2517.51 105.016L2577.61 234.269L2536.52 276.529L2479.66 290.821L2397.75 174.158ZM2469.95 206.605L2459.68 191.872L2517.05 158.773L2509.74 143.067L2434.58 186.438L2464.92 229.811L2516.96 199.766L2526.39 220.371L2512.44 234.533L2492.93 239.659L2484.91 228.249L2470.03 236.838L2485.64 259.531L2521.34 249.943L2547.26 224.014L2524.65 175.033L2469.95 206.605Z" fill="black"/>
<path d="M2631.75 174.158L2751.51 105.016L2811.61 234.269L2770.52 276.529L2713.66 290.821L2631.75 174.158ZM2703.95 206.605L2693.68 191.872L2751.05 158.773L2743.74 143.067L2668.58 186.438L2698.92 229.811L2750.96 199.766L2760.39 220.371L2746.44 234.533L2726.93 239.659L2718.91 228.249L2704.03 236.838L2719.64 259.531L2755.34 249.943L2781.26 224.014L2758.65 175.033L2703.95 206.605Z" fill="black"/>
<path d="M2865.75 174.158L2985.51 105.016L3045.61 234.269L3004.52 276.529L2947.66 290.821L2865.75 174.158ZM2937.95 206.605L2927.68 191.872L2985.05 158.773L2977.74 143.067L2902.58 186.438L2932.92 229.811L2984.96 199.766L2994.39 220.371L2980.44 234.533L2960.93 239.659L2952.91 228.249L2938.03 236.838L2953.64 259.531L2989.34 249.943L3015.26 224.014L2992.65 175.033L2937.95 206.605Z" fill="black"/>
<path d="M3099.75 174.158L3219.51 105.016L3279.61 234.269L3238.52 276.529L3181.66 290.821L3099.75 174.158ZM3171.95 206.605L3161.68 191.872L3219.05 158.773L3211.74 143.067L3136.58 186.438L3166.92 229.811L3218.96 199.766L3228.39 220.371L3214.44 234.533L3194.93 239.659L3186.91 228.249L3172.03 236.838L3187.64 259.531L3223.34 249.943L3249.26 224.014L3226.65 175.033L3171.95 206.605Z" fill="black"/>
<path d="M3325.75 174.158L3445.51 105.016L3505.61 234.269L3464.52 276.529L3407.66 290.821L3325.75 174.158ZM3397.95 206.605L3387.68 191.872L3445.05 158.773L3437.74 143.067L3362.58 186.438L3392.92 229.811L3444.96 199.766L3454.39 220.371L3440.44 234.533L3420.93 239.659L3412.91 228.249L3398.03 236.838L3413.64 259.531L3449.34 249.943L3475.26 224.014L3452.65 175.033L3397.95 206.605Z" fill="black"/>
<path d="M3559.75 174.158L3679.51 105.016L3739.61 234.269L3698.52 276.529L3641.66 290.821L3559.75 174.158ZM3631.95 206.605L3621.68 191.872L3679.05 158.773L3671.74 143.067L3596.58 186.438L3626.92 229.811L3678.96 199.766L3688.39 220.371L3674.44 234.533L3654.93 239.659L3646.91 228.249L3632.03 236.838L3647.64 259.531L3683.34 249.943L3709.26 224.014L3686.65 175.033L3631.95 206.605Z" fill="black"/>
<path d="M81.7535 392.158L201.511 323.016L261.608 452.269L220.519 494.529L163.657 508.821L81.7535 392.158ZM153.946 424.605L143.683 409.872L201.047 376.773L193.735 361.067L118.578 404.438L148.919 447.811L200.959 417.766L210.389 438.371L196.445 452.533L176.928 457.659L168.909 446.249L154.032 454.839L169.641 477.531L205.342 467.943L231.263 442.014L208.648 393.033L153.946 424.605Z" fill="black"/>
<path d="M315.754 392.158L435.511 323.016L495.608 452.269L454.519 494.529L397.657 508.821L315.754 392.158ZM387.946 424.605L377.684 409.872L435.047 376.773L427.735 361.067L352.578 404.438L382.919 447.811L434.959 417.766L444.389 438.371L430.445 452.533L410.928 457.659L402.909 446.249L388.032 454.839L403.641 477.531L439.342 467.943L465.263 442.014L442.648 393.033L387.946 424.605Z" fill="black"/>
<path d="M541.754 392.158L661.511 323.016L721.608 452.269L680.519 494.529L623.657 508.821L541.754 392.158ZM613.946 424.605L603.684 409.872L661.047 376.773L653.735 361.067L578.578 404.438L608.919 447.811L660.959 417.766L670.389 438.371L656.445 452.533L636.928 457.659L628.909 446.249L614.032 454.839L629.641 477.531L665.342 467.943L691.263 442.014L668.648 393.033L613.946 424.605Z" fill="black"/>
<path d="M775.754 392.158L895.511 323.016L955.608 452.269L914.519 494.529L857.657 508.821L775.754 392.158ZM847.946 424.605L837.684 409.872L895.047 376.773L887.735 361.067L812.578 404.438L842.919 447.811L894.959 417.766L904.389 438.371L890.445 452.533L870.928 457.659L862.909 446.249L848.032 454.839L863.641 477.531L899.342 467.943L925.263 442.014L902.648 393.033L847.946 424.605Z" fill="black"/>
<path d="M1009.75 392.158L1129.51 323.016L1189.61 452.269L1148.52 494.529L1091.66 508.821L1009.75 392.158ZM1081.95 424.605L1071.68 409.872L1129.05 376.773L1121.74 361.067L1046.58 404.438L1076.92 447.811L1128.96 417.766L1138.39 438.371L1124.44 452.533L1104.93 457.659L1096.91 446.249L1082.03 454.839L1097.64 477.531L1133.34 467.943L1159.26 442.014L1136.65 393.033L1081.95 424.605Z" fill="black"/>
<path d="M1243.75 392.158L1363.51 323.016L1423.61 452.269L1382.52 494.529L1325.66 508.821L1243.75 392.158ZM1315.95 424.605L1305.68 409.872L1363.05 376.773L1355.74 361.067L1280.58 404.438L1310.92 447.811L1362.96 417.766L1372.39 438.371L1358.44 452.533L1338.93 457.659L1330.91 446.249L1316.03 454.839L1331.64 477.531L1367.34 467.943L1393.26 442.014L1370.65 393.033L1315.95 424.605Z" fill="black"/>
<path d="M1469.75 392.158L1589.51 323.016L1649.61 452.269L1608.52 494.529L1551.66 508.821L1469.75 392.158ZM1541.95 424.605L1531.68 409.872L1589.05 376.773L1581.74 361.067L1506.58 404.438L1536.92 447.811L1588.96 417.766L1598.39 438.371L1584.44 452.533L1564.93 457.659L1556.91 446.249L1542.03 454.839L1557.64 477.531L1593.34 467.943L1619.26 442.014L1596.65 393.033L1541.95 424.605Z" fill="black"/>
<path d="M1703.75 392.158L1823.51 323.016L1883.61 452.269L1842.52 494.529L1785.66 508.821L1703.75 392.158ZM1775.95 424.605L1765.68 409.872L1823.05 376.773L1815.74 361.067L1740.58 404.438L1770.92 447.811L1822.96 417.766L1832.39 438.371L1818.44 452.533L1798.93 457.659L1790.91 446.249L1776.03 454.839L1791.64 477.531L1827.34 467.943L1853.26 442.014L1830.65 393.033L1775.95 424.605Z" fill="black"/>
<path d="M1937.75 392.158L2057.51 323.016L2117.61 452.269L2076.52 494.529L2019.66 508.821L1937.75 392.158ZM2009.95 424.605L1999.68 409.872L2057.05 376.773L2049.74 361.067L1974.58 404.438L2004.92 447.811L2056.96 417.766L2066.39 438.371L2052.44 452.533L2032.93 457.659L2024.91 446.249L2010.03 454.839L2025.64 477.531L2061.34 467.943L2087.26 442.014L2064.65 393.033L2009.95 424.605Z" fill="black"/>
<path d="M2171.75 392.158L2291.51 323.016L2351.61 452.269L2310.52 494.529L2253.66 508.821L2171.75 392.158ZM2243.95 424.605L2233.68 409.872L2291.05 376.773L2283.74 361.067L2208.58 404.438L2238.92 447.811L2290.96 417.766L2300.39 438.371L2286.44 452.533L2266.93 457.659L2258.91 446.249L2244.03 454.839L2259.64 477.531L2295.34 467.943L2321.26 442.014L2298.65 393.033L2243.95 424.605Z" fill="black"/>
<path d="M2397.75 392.158L2517.51 323.016L2577.61 452.269L2536.52 494.529L2479.66 508.821L2397.75 392.158ZM2469.95 424.605L2459.68 409.872L2517.05 376.773L2509.74 361.067L2434.58 404.438L2464.92 447.811L2516.96 417.766L2526.39 438.371L2512.44 452.533L2492.93 457.659L2484.91 446.249L2470.03 454.839L2485.64 477.531L2521.34 467.943L2547.26 442.014L2524.65 393.033L2469.95 424.605Z" fill="black"/>
<path d="M2631.75 392.158L2751.51 323.016L2811.61 452.269L2770.52 494.529L2713.66 508.821L2631.75 392.158ZM2703.95 424.605L2693.68 409.872L2751.05 376.773L2743.74 361.067L2668.58 404.438L2698.92 447.811L2750.96 417.766L2760.39 438.371L2746.44 452.533L2726.93 457.659L2718.91 446.249L2704.03 454.839L2719.64 477.531L2755.34 467.943L2781.26 442.014L2758.65 393.033L2703.95 424.605Z" fill="black"/>
<path d="M2865.75 392.158L2985.51 323.016L3045.61 452.269L3004.52 494.529L2947.66 508.821L2865.75 392.158ZM2937.95 424.605L2927.68 409.872L2985.05 376.773L2977.74 361.067L2902.58 404.438L2932.92 447.811L2984.96 417.766L2994.39 438.371L2980.44 452.533L2960.93 457.659L2952.91 446.249L2938.03 454.839L2953.64 477.531L2989.34 467.943L3015.26 442.014L2992.65 393.033L2937.95 424.605Z" fill="black"/>
<path d="M3099.75 392.158L3219.51 323.016L3279.61 452.269L3238.52 494.529L3181.66 508.821L3099.75 392.158ZM3171.95 424.605L3161.68 409.872L3219.05 376.773L3211.74 361.067L3136.58 404.438L3166.92 447.811L3218.96 417.766L3228.39 438.371L3214.44 452.533L3194.93 457.659L3186.91 446.249L3172.03 454.839L3187.64 477.531L3223.34 467.943L3249.26 442.014L3226.65 393.033L3171.95 424.605Z" fill="black"/>
<path d="M3325.75 392.158L3445.51 323.016L3505.61 452.269L3464.52 494.529L3407.66 508.821L3325.75 392.158ZM3397.95 424.605L3387.68 409.872L3445.05 376.773L3437.74 361.067L3362.58 404.438L3392.92 447.811L3444.96 417.766L3454.39 438.371L3440.44 452.533L3420.93 457.659L3412.91 446.249L3398.03 454.839L3413.64 477.531L3449.34 467.943L3475.26 442.014L3452.65 393.033L3397.95 424.605Z" fill="black"/>
<path d="M3559.75 392.158L3679.51 323.016L3739.61 452.269L3698.52 494.529L3641.66 508.821L3559.75 392.158ZM3631.95 424.605L3621.68 409.872L3679.05 376.773L3671.74 361.067L3596.58 404.438L3626.92 447.811L3678.96 417.766L3688.39 438.371L3674.44 452.533L3654.93 457.659L3646.91 446.249L3632.03 454.839L3647.64 477.531L3683.34 467.943L3709.26 442.014L3686.65 393.033L3631.95 424.605Z" fill="black"/>
<path d="M81.7535 610.158L201.511 541.016L261.608 670.269L220.519 712.529L163.657 726.821L81.7535 610.158ZM153.946 642.605L143.683 627.872L201.047 594.773L193.735 579.067L118.578 622.438L148.919 665.811L200.959 635.766L210.389 656.371L196.445 670.533L176.928 675.659L168.909 664.249L154.032 672.839L169.641 695.531L205.342 685.943L231.263 660.014L208.648 611.033L153.946 642.605Z" fill="black"/>
<path d="M315.754 610.158L435.511 541.016L495.608 670.269L454.519 712.529L397.657 726.821L315.754 610.158ZM387.946 642.605L377.684 627.872L435.047 594.773L427.735 579.067L352.578 622.438L382.919 665.811L434.959 635.766L444.389 656.371L430.445 670.533L410.928 675.659L402.909 664.249L388.032 672.839L403.641 695.531L439.342 685.943L465.263 660.014L442.648 611.033L387.946 642.605Z" fill="black"/>
<path d="M541.754 610.158L661.511 541.016L721.608 670.269L680.519 712.529L623.657 726.821L541.754 610.158ZM613.946 642.605L603.684 627.872L661.047 594.773L653.735 579.067L578.578 622.438L608.919 665.811L660.959 635.766L670.389 656.371L656.445 670.533L636.928 675.659L628.909 664.249L614.032 672.839L629.641 695.531L665.342 685.943L691.263 660.014L668.648 611.033L613.946 642.605Z" fill="black"/>
<path d="M775.754 610.158L895.511 541.016L955.608 670.269L914.519 712.529L857.657 726.821L775.754 610.158ZM847.946 642.605L837.684 627.872L895.047 594.773L887.735 579.067L812.578 622.438L842.919 665.811L894.959 635.766L904.389 656.371L890.445 670.533L870.928 675.659L862.909 664.249L848.032 672.839L863.641 695.531L899.342 685.943L925.263 660.014L902.648 611.033L847.946 642.605Z" fill="black"/>
<path d="M1009.75 610.158L1129.51 541.016L1189.61 670.269L1148.52 712.529L1091.66 726.821L1009.75 610.158ZM1081.95 642.605L1071.68 627.872L1129.05 594.773L1121.74 579.067L1046.58 622.438L1076.92 665.811L1128.96 635.766L1138.39 656.371L1124.44 670.533L1104.93 675.659L1096.91 664.249L1082.03 672.839L1097.64 695.531L1133.34 685.943L1159.26 660.014L1136.65 611.033L1081.95 642.605Z" fill="black"/>
<path d="M1243.75 610.158L1363.51 541.016L1423.61 670.269L1382.52 712.529L1325.66 726.821L1243.75 610.158ZM1315.95 642.605L1305.68 627.872L1363.05 594.773L1355.74 579.067L1280.58 622.438L1310.92 665.811L1362.96 635.766L1372.39 656.371L1358.44 670.533L1338.93 675.659L1330.91 664.249L1316.03 672.839L1331.64 695.531L1367.34 685.943L1393.26 660.014L1370.65 611.033L1315.95 642.605Z" fill="black"/>
<path d="M1469.75 610.158L1589.51 541.016L1649.61 670.269L1608.52 712.529L1551.66 726.821L1469.75 610.158ZM1541.95 642.605L1531.68 627.872L1589.05 594.773L1581.74 579.067L1506.58 622.438L1536.92 665.811L1588.96 635.766L1598.39 656.371L1584.44 670.533L1564.93 675.659L1556.91 664.249L1542.03 672.839L1557.64 695.531L1593.34 685.943L1619.26 660.014L1596.65 611.033L1541.95 642.605Z" fill="black"/>
<path d="M1703.75 610.158L1823.51 541.016L1883.61 670.269L1842.52 712.529L1785.66 726.821L1703.75 610.158ZM1775.95 642.605L1765.68 627.872L1823.05 594.773L1815.74 579.067L1740.58 622.438L1770.92 665.811L1822.96 635.766L1832.39 656.371L1818.44 670.533L1798.93 675.659L1790.91 664.249L1776.03 672.839L1791.64 695.531L1827.34 685.943L1853.26 660.014L1830.65 611.033L1775.95 642.605Z" fill="black"/>
<path d="M1937.75 610.158L2057.51 541.016L2117.61 670.269L2076.52 712.529L2019.66 726.821L1937.75 610.158ZM2009.95 642.605L1999.68 627.872L2057.05 594.773L2049.74 579.067L1974.58 622.438L2004.92 665.811L2056.96 635.766L2066.39 656.371L2052.44 670.533L2032.93 675.659L2024.91 664.249L2010.03 672.839L2025.64 695.531L2061.34 685.943L2087.26 660.014L2064.65 611.033L2009.95 642.605Z" fill="black"/>
<path d="M2171.75 610.158L2291.51 541.016L2351.61 670.269L2310.52 712.529L2253.66 726.821L2171.75 610.158ZM2243.95 642.605L2233.68 627.872L2291.05 594.773L2283.74 579.067L2208.58 622.438L2238.92 665.811L2290.96 635.766L2300.39 656.371L2286.44 670.533L2266.93 675.659L2258.91 664.249L2244.03 672.839L2259.64 695.531L2295.34 685.943L2321.26 660.014L2298.65 611.033L2243.95 642.605Z" fill="black"/>
<path d="M2397.75 610.158L2517.51 541.016L2577.61 670.269L2536.52 712.529L2479.66 726.821L2397.75 610.158ZM2469.95 642.605L2459.68 627.872L2517.05 594.773L2509.74 579.067L2434.58 622.438L2464.92 665.811L2516.96 635.766L2526.39 656.371L2512.44 670.533L2492.93 675.659L2484.91 664.249L2470.03 672.839L2485.64 695.531L2521.34 685.943L2547.26 660.014L2524.65 611.033L2469.95 642.605Z" fill="black"/>
<path d="M2631.75 610.158L2751.51 541.016L2811.61 670.269L2770.52 712.529L2713.66 726.821L2631.75 610.158ZM2703.95 642.605L2693.68 627.872L2751.05 594.773L2743.74 579.067L2668.58 622.438L2698.92 665.811L2750.96 635.766L2760.39 656.371L2746.44 670.533L2726.93 675.659L2718.91 664.249L2704.03 672.839L2719.64 695.531L2755.34 685.943L2781.26 660.014L2758.65 611.033L2703.95 642.605Z" fill="black"/>
<path d="M2865.75 610.158L2985.51 541.016L3045.61 670.269L3004.52 712.529L2947.66 726.821L2865.75 610.158ZM2937.95 642.605L2927.68 627.872L2985.05 594.773L2977.74 579.067L2902.58 622.438L2932.92 665.811L2984.96 635.766L2994.39 656.371L2980.44 670.533L2960.93 675.659L2952.91 664.249L2938.03 672.839L2953.64 695.531L2989.34 685.943L3015.26 660.014L2992.65 611.033L2937.95 642.605Z" fill="black"/>
<path d="M3099.75 610.158L3219.51 541.016L3279.61 670.269L3238.52 712.529L3181.66 726.821L3099.75 610.158ZM3171.95 642.605L3161.68 627.872L3219.05 594.773L3211.74 579.067L3136.58 622.438L3166.92 665.811L3218.96 635.766L3228.39 656.371L3214.44 670.533L3194.93 675.659L3186.91 664.249L3172.03 672.839L3187.64 695.531L3223.34 685.943L3249.26 660.014L3226.65 611.033L3171.95 642.605Z" fill="black"/>
<path d="M3325.75 610.158L3445.51 541.016L3505.61 670.269L3464.52 712.529L3407.66 726.821L3325.75 610.158ZM3397.95 642.605L3387.68 627.872L3445.05 594.773L3437.74 579.067L3362.58 622.438L3392.92 665.811L3444.96 635.766L3454.39 656.371L3440.44 670.533L3420.93 675.659L3412.91 664.249L3398.03 672.839L3413.64 695.531L3449.34 685.943L3475.26 660.014L3452.65 611.033L3397.95 642.605Z" fill="black"/>
<path d="M3559.75 610.158L3679.51 541.016L3739.61 670.269L3698.52 712.529L3641.66 726.821L3559.75 610.158ZM3631.95 642.605L3621.68 627.872L3679.05 594.773L3671.74 579.067L3596.58 622.438L3626.92 665.811L3678.96 635.766L3688.39 656.371L3674.44 670.533L3654.93 675.659L3646.91 664.249L3632.03 672.839L3647.64 695.531L3683.34 685.943L3709.26 660.014L3686.65 611.033L3631.95 642.605Z" fill="black"/>
<path d="M81.7535 828.158L201.511 759.016L261.608 888.269L220.519 930.529L163.657 944.821L81.7535 828.158ZM153.946 860.605L143.683 845.872L201.047 812.773L193.735 797.067L118.578 840.438L148.919 883.811L200.959 853.766L210.389 874.371L196.445 888.533L176.928 893.659L168.909 882.249L154.032 890.839L169.641 913.531L205.342 903.943L231.263 878.014L208.648 829.033L153.946 860.605Z" fill="black"/>
<path d="M315.754 828.158L435.511 759.016L495.608 888.269L454.519 930.529L397.657 944.821L315.754 828.158ZM387.946 860.605L377.684 845.872L435.047 812.773L427.735 797.067L352.578 840.438L382.919 883.811L434.959 853.766L444.389 874.371L430.445 888.533L410.928 893.659L402.909 882.249L388.032 890.839L403.641 913.531L439.342 903.943L465.263 878.014L442.648 829.033L387.946 860.605Z" fill="black"/>
<path d="M541.754 828.158L661.511 759.016L721.608 888.269L680.519 930.529L623.657 944.821L541.754 828.158ZM613.946 860.605L603.684 845.872L661.047 812.773L653.735 797.067L578.578 840.438L608.919 883.811L660.959 853.766L670.389 874.371L656.445 888.533L636.928 893.659L628.909 882.249L614.032 890.839L629.641 913.531L665.342 903.943L691.263 878.014L668.648 829.033L613.946 860.605Z" fill="black"/>
<path d="M775.754 828.158L895.511 759.016L955.608 888.269L914.519 930.529L857.657 944.821L775.754 828.158ZM847.946 860.605L837.684 845.872L895.047 812.773L887.735 797.067L812.578 840.438L842.919 883.811L894.959 853.766L904.389 874.371L890.445 888.533L870.928 893.659L862.909 882.249L848.032 890.839L863.641 913.531L899.342 903.943L925.263 878.014L902.648 829.033L847.946 860.605Z" fill="black"/>
<path d="M1009.75 828.158L1129.51 759.016L1189.61 888.269L1148.52 930.529L1091.66 944.821L1009.75 828.158ZM1081.95 860.605L1071.68 845.872L1129.05 812.773L1121.74 797.067L1046.58 840.438L1076.92 883.811L1128.96 853.766L1138.39 874.371L1124.44 888.533L1104.93 893.659L1096.91 882.249L1082.03 890.839L1097.64 913.531L1133.34 903.943L1159.26 878.014L1136.65 829.033L1081.95 860.605Z" fill="black"/>
<path d="M1243.75 828.158L1363.51 759.016L1423.61 888.269L1382.52 930.529L1325.66 944.821L1243.75 828.158ZM1315.95 860.605L1305.68 845.872L1363.05 812.773L1355.74 797.067L1280.58 840.438L1310.92 883.811L1362.96 853.766L1372.39 874.371L1358.44 888.533L1338.93 893.659L1330.91 882.249L1316.03 890.839L1331.64 913.531L1367.34 903.943L1393.26 878.014L1370.65 829.033L1315.95 860.605Z" fill="black"/>
<path d="M1469.75 828.158L1589.51 759.016L1649.61 888.269L1608.52 930.529L1551.66 944.821L1469.75 828.158ZM1541.95 860.605L1531.68 845.872L1589.05 812.773L1581.74 797.067L1506.58 840.438L1536.92 883.811L1588.96 853.766L1598.39 874.371L1584.44 888.533L1564.93 893.659L1556.91 882.249L1542.03 890.839L1557.64 913.531L1593.34 903.943L1619.26 878.014L1596.65 829.033L1541.95 860.605Z" fill="black"/>
<path d="M1703.75 828.158L1823.51 759.016L1883.61 888.269L1842.52 930.529L1785.66 944.821L1703.75 828.158ZM1775.95 860.605L1765.68 845.872L1823.05 812.773L1815.74 797.067L1740.58 840.438L1770.92 883.811L1822.96 853.766L1832.39 874.371L1818.44 888.533L1798.93 893.659L1790.91 882.249L1776.03 890.839L1791.64 913.531L1827.34 903.943L1853.26 878.014L1830.65 829.033L1775.95 860.605Z" fill="black"/>
<path d="M1937.75 828.158L2057.51 759.016L2117.61 888.269L2076.52 930.529L2019.66 944.821L1937.75 828.158ZM2009.95 860.605L1999.68 845.872L2057.05 812.773L2049.74 797.067L1974.58 840.438L2004.92 883.811L2056.96 853.766L2066.39 874.371L2052.44 888.533L2032.93 893.659L2024.91 882.249L2010.03 890.839L2025.64 913.531L2061.34 903.943L2087.26 878.014L2064.65 829.033L2009.95 860.605Z" fill="black"/>
<path d="M2171.75 828.158L2291.51 759.016L2351.61 888.269L2310.52 930.529L2253.66 944.821L2171.75 828.158ZM2243.95 860.605L2233.68 845.872L2291.05 812.773L2283.74 797.067L2208.58 840.438L2238.92 883.811L2290.96 853.766L2300.39 874.371L2286.44 888.533L2266.93 893.659L2258.91 882.249L2244.03 890.839L2259.64 913.531L2295.34 903.943L2321.26 878.014L2298.65 829.033L2243.95 860.605Z" fill="black"/>
<path d="M2397.75 828.158L2517.51 759.016L2577.61 888.269L2536.52 930.529L2479.66 944.821L2397.75 828.158ZM2469.95 860.605L2459.68 845.872L2517.05 812.773L2509.74 797.067L2434.58 840.438L2464.92 883.811L2516.96 853.766L2526.39 874.371L2512.44 888.533L2492.93 893.659L2484.91 882.249L2470.03 890.839L2485.64 913.531L2521.34 903.943L2547.26 878.014L2524.65 829.033L2469.95 860.605Z" fill="black"/>
<path d="M2631.75 828.158L2751.51 759.016L2811.61 888.269L2770.52 930.529L2713.66 944.821L2631.75 828.158ZM2703.95 860.605L2693.68 845.872L2751.05 812.773L2743.74 797.067L2668.58 840.438L2698.92 883.811L2750.96 853.766L2760.39 874.371L2746.44 888.533L2726.93 893.659L2718.91 882.249L2704.03 890.839L2719.64 913.531L2755.34 903.943L2781.26 878.014L2758.65 829.033L2703.95 860.605Z" fill="black"/>
<path d="M2865.75 828.158L2985.51 759.016L3045.61 888.269L3004.52 930.529L2947.66 944.821L2865.75 828.158ZM2937.95 860.605L2927.68 845.872L2985.05 812.773L2977.74 797.067L2902.58 840.438L2932.92 883.811L2984.96 853.766L2994.39 874.371L2980.44 888.533L2960.93 893.659L2952.91 882.249L2938.03 890.839L2953.64 913.531L2989.34 903.943L3015.26 878.014L2992.65 829.033L2937.95 860.605Z" fill="black"/>
<path d="M3099.75 828.158L3219.51 759.016L3279.61 888.269L3238.52 930.529L3181.66 944.821L3099.75 828.158ZM3171.95 860.605L3161.68 845.872L3219.05 812.773L3211.74 797.067L3136.58 840.438L3166.92 883.811L3218.96 853.766L3228.39 874.371L3214.44 888.533L3194.93 893.659L3186.91 882.249L3172.03 890.839L3187.64 913.531L3223.34 903.943L3249.26 878.014L3226.65 829.033L3171.95 860.605Z" fill="black"/>
<path d="M3325.75 828.158L3445.51 759.016L3505.61 888.269L3464.52 930.529L3407.66 944.821L3325.75 828.158ZM3397.95 860.605L3387.68 845.872L3445.05 812.773L3437.74 797.067L3362.58 840.438L3392.92 883.811L3444.96 853.766L3454.39 874.371L3440.44 888.533L3420.93 893.659L3412.91 882.249L3398.03 890.839L3413.64 913.531L3449.34 903.943L3475.26 878.014L3452.65 829.033L3397.95 860.605Z" fill="black"/>
<path d="M3559.75 828.158L3679.51 759.016L3739.61 888.269L3698.52 930.529L3641.66 944.821L3559.75 828.158ZM3631.95 860.605L3621.68 845.872L3679.05 812.773L3671.74 797.067L3596.58 840.438L3626.92 883.811L3678.96 853.766L3688.39 874.371L3674.44 888.533L3654.93 893.659L3646.91 882.249L3632.03 890.839L3647.64 913.531L3683.34 903.943L3709.26 878.014L3686.65 829.033L3631.95 860.605Z" fill="black"/>
<path d="M81.7535 1046.16L201.511 977.016L261.608 1106.27L220.519 1148.53L163.657 1162.82L81.7535 1046.16ZM153.946 1078.61L143.683 1063.87L201.047 1030.77L193.735 1015.07L118.578 1058.44L148.919 1101.81L200.959 1071.77L210.389 1092.37L196.445 1106.53L176.928 1111.66L168.909 1100.25L154.032 1108.84L169.641 1131.53L205.342 1121.94L231.263 1096.01L208.648 1047.03L153.946 1078.61Z" fill="black"/>
<path d="M315.754 1046.16L435.511 977.016L495.608 1106.27L454.519 1148.53L397.657 1162.82L315.754 1046.16ZM387.946 1078.61L377.684 1063.87L435.047 1030.77L427.735 1015.07L352.578 1058.44L382.919 1101.81L434.959 1071.77L444.389 1092.37L430.445 1106.53L410.928 1111.66L402.909 1100.25L388.032 1108.84L403.641 1131.53L439.342 1121.94L465.263 1096.01L442.648 1047.03L387.946 1078.61Z" fill="black"/>
<path d="M541.754 1046.16L661.511 977.016L721.608 1106.27L680.519 1148.53L623.657 1162.82L541.754 1046.16ZM613.946 1078.61L603.684 1063.87L661.047 1030.77L653.735 1015.07L578.578 1058.44L608.919 1101.81L660.959 1071.77L670.389 1092.37L656.445 1106.53L636.928 1111.66L628.909 1100.25L614.032 1108.84L629.641 1131.53L665.342 1121.94L691.263 1096.01L668.648 1047.03L613.946 1078.61Z" fill="black"/>
<path d="M775.754 1046.16L895.511 977.016L955.608 1106.27L914.519 1148.53L857.657 1162.82L775.754 1046.16ZM847.946 1078.61L837.684 1063.87L895.047 1030.77L887.735 1015.07L812.578 1058.44L842.919 1101.81L894.959 1071.77L904.389 1092.37L890.445 1106.53L870.928 1111.66L862.909 1100.25L848.032 1108.84L863.641 1131.53L899.342 1121.94L925.263 1096.01L902.648 1047.03L847.946 1078.61Z" fill="black"/>
<path d="M1009.75 1046.16L1129.51 977.016L1189.61 1106.27L1148.52 1148.53L1091.66 1162.82L1009.75 1046.16ZM1081.95 1078.61L1071.68 1063.87L1129.05 1030.77L1121.74 1015.07L1046.58 1058.44L1076.92 1101.81L1128.96 1071.77L1138.39 1092.37L1124.44 1106.53L1104.93 1111.66L1096.91 1100.25L1082.03 1108.84L1097.64 1131.53L1133.34 1121.94L1159.26 1096.01L1136.65 1047.03L1081.95 1078.61Z" fill="black"/>
<path d="M1243.75 1046.16L1363.51 977.016L1423.61 1106.27L1382.52 1148.53L1325.66 1162.82L1243.75 1046.16ZM1315.95 1078.61L1305.68 1063.87L1363.05 1030.77L1355.74 1015.07L1280.58 1058.44L1310.92 1101.81L1362.96 1071.77L1372.39 1092.37L1358.44 1106.53L1338.93 1111.66L1330.91 1100.25L1316.03 1108.84L1331.64 1131.53L1367.34 1121.94L1393.26 1096.01L1370.65 1047.03L1315.95 1078.61Z" fill="black"/>
<path d="M1469.75 1046.16L1589.51 977.016L1649.61 1106.27L1608.52 1148.53L1551.66 1162.82L1469.75 1046.16ZM1541.95 1078.61L1531.68 1063.87L1589.05 1030.77L1581.74 1015.07L1506.58 1058.44L1536.92 1101.81L1588.96 1071.77L1598.39 1092.37L1584.44 1106.53L1564.93 1111.66L1556.91 1100.25L1542.03 1108.84L1557.64 1131.53L1593.34 1121.94L1619.26 1096.01L1596.65 1047.03L1541.95 1078.61Z" fill="black"/>
<path d="M1703.75 1046.16L1823.51 977.016L1883.61 1106.27L1842.52 1148.53L1785.66 1162.82L1703.75 1046.16ZM1775.95 1078.61L1765.68 1063.87L1823.05 1030.77L1815.74 1015.07L1740.58 1058.44L1770.92 1101.81L1822.96 1071.77L1832.39 1092.37L1818.44 1106.53L1798.93 1111.66L1790.91 1100.25L1776.03 1108.84L1791.64 1131.53L1827.34 1121.94L1853.26 1096.01L1830.65 1047.03L1775.95 1078.61Z" fill="black"/>
<path d="M1937.75 1046.16L2057.51 977.016L2117.61 1106.27L2076.52 1148.53L2019.66 1162.82L1937.75 1046.16ZM2009.95 1078.61L1999.68 1063.87L2057.05 1030.77L2049.74 1015.07L1974.58 1058.44L2004.92 1101.81L2056.96 1071.77L2066.39 1092.37L2052.44 1106.53L2032.93 1111.66L2024.91 1100.25L2010.03 1108.84L2025.64 1131.53L2061.34 1121.94L2087.26 1096.01L2064.65 1047.03L2009.95 1078.61Z" fill="black"/>
<path d="M2171.75 1046.16L2291.51 977.016L2351.61 1106.27L2310.52 1148.53L2253.66 1162.82L2171.75 1046.16ZM2243.95 1078.61L2233.68 1063.87L2291.05 1030.77L2283.74 1015.07L2208.58 1058.44L2238.92 1101.81L2290.96 1071.77L2300.39 1092.37L2286.44 1106.53L2266.93 1111.66L2258.91 1100.25L2244.03 1108.84L2259.64 1131.53L2295.34 1121.94L2321.26 1096.01L2298.65 1047.03L2243.95 1078.61Z" fill="black"/>
<path d="M2397.75 1046.16L2517.51 977.016L2577.61 1106.27L2536.52 1148.53L2479.66 1162.82L2397.75 1046.16ZM2469.95 1078.61L2459.68 1063.87L2517.05 1030.77L2509.74 1015.07L2434.58 1058.44L2464.92 1101.81L2516.96 1071.77L2526.39 1092.37L2512.44 1106.53L2492.93 1111.66L2484.91 1100.25L2470.03 1108.84L2485.64 1131.53L2521.34 1121.94L2547.26 1096.01L2524.65 1047.03L2469.95 1078.61Z" fill="black"/>
<path d="M2631.75 1046.16L2751.51 977.016L2811.61 1106.27L2770.52 1148.53L2713.66 1162.82L2631.75 1046.16ZM2703.95 1078.61L2693.68 1063.87L2751.05 1030.77L2743.74 1015.07L2668.58 1058.44L2698.92 1101.81L2750.96 1071.77L2760.39 1092.37L2746.44 1106.53L2726.93 1111.66L2718.91 1100.25L2704.03 1108.84L2719.64 1131.53L2755.34 1121.94L2781.26 1096.01L2758.65 1047.03L2703.95 1078.61Z" fill="black"/>
<path d="M2865.75 1046.16L2985.51 977.016L3045.61 1106.27L3004.52 1148.53L2947.66 1162.82L2865.75 1046.16ZM2937.95 1078.61L2927.68 1063.87L2985.05 1030.77L2977.74 1015.07L2902.58 1058.44L2932.92 1101.81L2984.96 1071.77L2994.39 1092.37L2980.44 1106.53L2960.93 1111.66L2952.91 1100.25L2938.03 1108.84L2953.64 1131.53L2989.34 1121.94L3015.26 1096.01L2992.65 1047.03L2937.95 1078.61Z" fill="black"/>
<path d="M3099.75 1046.16L3219.51 977.016L3279.61 1106.27L3238.52 1148.53L3181.66 1162.82L3099.75 1046.16ZM3171.95 1078.61L3161.68 1063.87L3219.05 1030.77L3211.74 1015.07L3136.58 1058.44L3166.92 1101.81L3218.96 1071.77L3228.39 1092.37L3214.44 1106.53L3194.93 1111.66L3186.91 1100.25L3172.03 1108.84L3187.64 1131.53L3223.34 1121.94L3249.26 1096.01L3226.65 1047.03L3171.95 1078.61Z" fill="black"/>
<path d="M3325.75 1046.16L3445.51 977.016L3505.61 1106.27L3464.52 1148.53L3407.66 1162.82L3325.75 1046.16ZM3397.95 1078.61L3387.68 1063.87L3445.05 1030.77L3437.74 1015.07L3362.58 1058.44L3392.92 1101.81L3444.96 1071.77L3454.39 1092.37L3440.44 1106.53L3420.93 1111.66L3412.91 1100.25L3398.03 1108.84L3413.64 1131.53L3449.34 1121.94L3475.26 1096.01L3452.65 1047.03L3397.95 1078.61Z" fill="black"/>
<path d="M3559.75 1046.16L3679.51 977.016L3739.61 1106.27L3698.52 1148.53L3641.66 1162.82L3559.75 1046.16ZM3631.95 1078.61L3621.68 1063.87L3679.05 1030.77L3671.74 1015.07L3596.58 1058.44L3626.92 1101.81L3678.96 1071.77L3688.39 1092.37L3674.44 1106.53L3654.93 1111.66L3646.91 1100.25L3632.03 1108.84L3647.64 1131.53L3683.34 1121.94L3709.26 1096.01L3686.65 1047.03L3631.95 1078.61Z" fill="black"/>
<path d="M81.7535 1264.16L201.511 1195.02L261.608 1324.27L220.519 1366.53L163.657 1380.82L81.7535 1264.16ZM153.946 1296.61L143.683 1281.87L201.047 1248.77L193.735 1233.07L118.578 1276.44L148.919 1319.81L200.959 1289.77L210.389 1310.37L196.445 1324.53L176.928 1329.66L168.909 1318.25L154.032 1326.84L169.641 1349.53L205.342 1339.94L231.263 1314.01L208.648 1265.03L153.946 1296.61Z" fill="black"/>
<path d="M315.754 1264.16L435.511 1195.02L495.608 1324.27L454.519 1366.53L397.657 1380.82L315.754 1264.16ZM387.946 1296.61L377.684 1281.87L435.047 1248.77L427.735 1233.07L352.578 1276.44L382.919 1319.81L434.959 1289.77L444.389 1310.37L430.445 1324.53L410.928 1329.66L402.909 1318.25L388.032 1326.84L403.641 1349.53L439.342 1339.94L465.263 1314.01L442.648 1265.03L387.946 1296.61Z" fill="black"/>
<path d="M541.754 1264.16L661.511 1195.02L721.608 1324.27L680.519 1366.53L623.657 1380.82L541.754 1264.16ZM613.946 1296.61L603.684 1281.87L661.047 1248.77L653.735 1233.07L578.578 1276.44L608.919 1319.81L660.959 1289.77L670.389 1310.37L656.445 1324.53L636.928 1329.66L628.909 1318.25L614.032 1326.84L629.641 1349.53L665.342 1339.94L691.263 1314.01L668.648 1265.03L613.946 1296.61Z" fill="black"/>
<path d="M775.754 1264.16L895.511 1195.02L955.608 1324.27L914.519 1366.53L857.657 1380.82L775.754 1264.16ZM847.946 1296.61L837.684 1281.87L895.047 1248.77L887.735 1233.07L812.578 1276.44L842.919 1319.81L894.959 1289.77L904.389 1310.37L890.445 1324.53L870.928 1329.66L862.909 1318.25L848.032 1326.84L863.641 1349.53L899.342 1339.94L925.263 1314.01L902.648 1265.03L847.946 1296.61Z" fill="black"/>
<path d="M1009.75 1264.16L1129.51 1195.02L1189.61 1324.27L1148.52 1366.53L1091.66 1380.82L1009.75 1264.16ZM1081.95 1296.61L1071.68 1281.87L1129.05 1248.77L1121.74 1233.07L1046.58 1276.44L1076.92 1319.81L1128.96 1289.77L1138.39 1310.37L1124.44 1324.53L1104.93 1329.66L1096.91 1318.25L1082.03 1326.84L1097.64 1349.53L1133.34 1339.94L1159.26 1314.01L1136.65 1265.03L1081.95 1296.61Z" fill="black"/>
<path d="M1243.75 1264.16L1363.51 1195.02L1423.61 1324.27L1382.52 1366.53L1325.66 1380.82L1243.75 1264.16ZM1315.95 1296.61L1305.68 1281.87L1363.05 1248.77L1355.74 1233.07L1280.58 1276.44L1310.92 1319.81L1362.96 1289.77L1372.39 1310.37L1358.44 1324.53L1338.93 1329.66L1330.91 1318.25L1316.03 1326.84L1331.64 1349.53L1367.34 1339.94L1393.26 1314.01L1370.65 1265.03L1315.95 1296.61Z" fill="black"/>
<path d="M1469.75 1264.16L1589.51 1195.02L1649.61 1324.27L1608.52 1366.53L1551.66 1380.82L1469.75 1264.16ZM1541.95 1296.61L1531.68 1281.87L1589.05 1248.77L1581.74 1233.07L1506.58 1276.44L1536.92 1319.81L1588.96 1289.77L1598.39 1310.37L1584.44 1324.53L1564.93 1329.66L1556.91 1318.25L1542.03 1326.84L1557.64 1349.53L1593.34 1339.94L1619.26 1314.01L1596.65 1265.03L1541.95 1296.61Z" fill="black"/>
<path d="M1703.75 1264.16L1823.51 1195.02L1883.61 1324.27L1842.52 1366.53L1785.66 1380.82L1703.75 1264.16ZM1775.95 1296.61L1765.68 1281.87L1823.05 1248.77L1815.74 1233.07L1740.58 1276.44L1770.92 1319.81L1822.96 1289.77L1832.39 1310.37L1818.44 1324.53L1798.93 1329.66L1790.91 1318.25L1776.03 1326.84L1791.64 1349.53L1827.34 1339.94L1853.26 1314.01L1830.65 1265.03L1775.95 1296.61Z" fill="black"/>
<path d="M1937.75 1264.16L2057.51 1195.02L2117.61 1324.27L2076.52 1366.53L2019.66 1380.82L1937.75 1264.16ZM2009.95 1296.61L1999.68 1281.87L2057.05 1248.77L2049.74 1233.07L1974.58 1276.44L2004.92 1319.81L2056.96 1289.77L2066.39 1310.37L2052.44 1324.53L2032.93 1329.66L2024.91 1318.25L2010.03 1326.84L2025.64 1349.53L2061.34 1339.94L2087.26 1314.01L2064.65 1265.03L2009.95 1296.61Z" fill="black"/>
<path d="M2171.75 1264.16L2291.51 1195.02L2351.61 1324.27L2310.52 1366.53L2253.66 1380.82L2171.75 1264.16ZM2243.95 1296.61L2233.68 1281.87L2291.05 1248.77L2283.74 1233.07L2208.58 1276.44L2238.92 1319.81L2290.96 1289.77L2300.39 1310.37L2286.44 1324.53L2266.93 1329.66L2258.91 1318.25L2244.03 1326.84L2259.64 1349.53L2295.34 1339.94L2321.26 1314.01L2298.65 1265.03L2243.95 1296.61Z" fill="black"/>
<path d="M2397.75 1264.16L2517.51 1195.02L2577.61 1324.27L2536.52 1366.53L2479.66 1380.82L2397.75 1264.16ZM2469.95 1296.61L2459.68 1281.87L2517.05 1248.77L2509.74 1233.07L2434.58 1276.44L2464.92 1319.81L2516.96 1289.77L2526.39 1310.37L2512.44 1324.53L2492.93 1329.66L2484.91 1318.25L2470.03 1326.84L2485.64 1349.53L2521.34 1339.94L2547.26 1314.01L2524.65 1265.03L2469.95 1296.61Z" fill="black"/>
<path d="M2631.75 1264.16L2751.51 1195.02L2811.61 1324.27L2770.52 1366.53L2713.66 1380.82L2631.75 1264.16ZM2703.95 1296.61L2693.68 1281.87L2751.05 1248.77L2743.74 1233.07L2668.58 1276.44L2698.92 1319.81L2750.96 1289.77L2760.39 1310.37L2746.44 1324.53L2726.93 1329.66L2718.91 1318.25L2704.03 1326.84L2719.64 1349.53L2755.34 1339.94L2781.26 1314.01L2758.65 1265.03L2703.95 1296.61Z" fill="black"/>
<path d="M2865.75 1264.16L2985.51 1195.02L3045.61 1324.27L3004.52 1366.53L2947.66 1380.82L2865.75 1264.16ZM2937.95 1296.61L2927.68 1281.87L2985.05 1248.77L2977.74 1233.07L2902.58 1276.44L2932.92 1319.81L2984.96 1289.77L2994.39 1310.37L2980.44 1324.53L2960.93 1329.66L2952.91 1318.25L2938.03 1326.84L2953.64 1349.53L2989.34 1339.94L3015.26 1314.01L2992.65 1265.03L2937.95 1296.61Z" fill="black"/>
<path d="M3099.75 1264.16L3219.51 1195.02L3279.61 1324.27L3238.52 1366.53L3181.66 1380.82L3099.75 1264.16ZM3171.95 1296.61L3161.68 1281.87L3219.05 1248.77L3211.74 1233.07L3136.58 1276.44L3166.92 1319.81L3218.96 1289.77L3228.39 1310.37L3214.44 1324.53L3194.93 1329.66L3186.91 1318.25L3172.03 1326.84L3187.64 1349.53L3223.34 1339.94L3249.26 1314.01L3226.65 1265.03L3171.95 1296.61Z" fill="black"/>
<path d="M3325.75 1264.16L3445.51 1195.02L3505.61 1324.27L3464.52 1366.53L3407.66 1380.82L3325.75 1264.16ZM3397.95 1296.61L3387.68 1281.87L3445.05 1248.77L3437.74 1233.07L3362.58 1276.44L3392.92 1319.81L3444.96 1289.77L3454.39 1310.37L3440.44 1324.53L3420.93 1329.66L3412.91 1318.25L3398.03 1326.84L3413.64 1349.53L3449.34 1339.94L3475.26 1314.01L3452.65 1265.03L3397.95 1296.61Z" fill="black"/>
<path d="M3559.75 1264.16L3679.51 1195.02L3739.61 1324.27L3698.52 1366.53L3641.66 1380.82L3559.75 1264.16ZM3631.95 1296.61L3621.68 1281.87L3679.05 1248.77L3671.74 1233.07L3596.58 1276.44L3626.92 1319.81L3678.96 1289.77L3688.39 1310.37L3674.44 1324.53L3654.93 1329.66L3646.91 1318.25L3632.03 1326.84L3647.64 1349.53L3683.34 1339.94L3709.26 1314.01L3686.65 1265.03L3631.95 1296.61Z" fill="black"/>
<path d="M81.7535 1482.16L201.511 1413.02L261.608 1542.27L220.519 1584.53L163.657 1598.82L81.7535 1482.16ZM153.946 1514.61L143.683 1499.87L201.047 1466.77L193.735 1451.07L118.578 1494.44L148.919 1537.81L200.959 1507.77L210.389 1528.37L196.445 1542.53L176.928 1547.66L168.909 1536.25L154.032 1544.84L169.641 1567.53L205.342 1557.94L231.263 1532.01L208.648 1483.03L153.946 1514.61Z" fill="black"/>
<path d="M315.754 1482.16L435.511 1413.02L495.608 1542.27L454.519 1584.53L397.657 1598.82L315.754 1482.16ZM387.946 1514.61L377.684 1499.87L435.047 1466.77L427.735 1451.07L352.578 1494.44L382.919 1537.81L434.959 1507.77L444.389 1528.37L430.445 1542.53L410.928 1547.66L402.909 1536.25L388.032 1544.84L403.641 1567.53L439.342 1557.94L465.263 1532.01L442.648 1483.03L387.946 1514.61Z" fill="black"/>
<path d="M541.754 1482.16L661.511 1413.02L721.608 1542.27L680.519 1584.53L623.657 1598.82L541.754 1482.16ZM613.946 1514.61L603.684 1499.87L661.047 1466.77L653.735 1451.07L578.578 1494.44L608.919 1537.81L660.959 1507.77L670.389 1528.37L656.445 1542.53L636.928 1547.66L628.909 1536.25L614.032 1544.84L629.641 1567.53L665.342 1557.94L691.263 1532.01L668.648 1483.03L613.946 1514.61Z" fill="black"/>
<path d="M775.754 1482.16L895.511 1413.02L955.608 1542.27L914.519 1584.53L857.657 1598.82L775.754 1482.16ZM847.946 1514.61L837.684 1499.87L895.047 1466.77L887.735 1451.07L812.578 1494.44L842.919 1537.81L894.959 1507.77L904.389 1528.37L890.445 1542.53L870.928 1547.66L862.909 1536.25L848.032 1544.84L863.641 1567.53L899.342 1557.94L925.263 1532.01L902.648 1483.03L847.946 1514.61Z" fill="black"/>
<path d="M1009.75 1482.16L1129.51 1413.02L1189.61 1542.27L1148.52 1584.53L1091.66 1598.82L1009.75 1482.16ZM1081.95 1514.61L1071.68 1499.87L1129.05 1466.77L1121.74 1451.07L1046.58 1494.44L1076.92 1537.81L1128.96 1507.77L1138.39 1528.37L1124.44 1542.53L1104.93 1547.66L1096.91 1536.25L1082.03 1544.84L1097.64 1567.53L1133.34 1557.94L1159.26 1532.01L1136.65 1483.03L1081.95 1514.61Z" fill="black"/>
<path d="M1243.75 1482.16L1363.51 1413.02L1423.61 1542.27L1382.52 1584.53L1325.66 1598.82L1243.75 1482.16ZM1315.95 1514.61L1305.68 1499.87L1363.05 1466.77L1355.74 1451.07L1280.58 1494.44L1310.92 1537.81L1362.96 1507.77L1372.39 1528.37L1358.44 1542.53L1338.93 1547.66L1330.91 1536.25L1316.03 1544.84L1331.64 1567.53L1367.34 1557.94L1393.26 1532.01L1370.65 1483.03L1315.95 1514.61Z" fill="black"/>
<path d="M1469.75 1482.16L1589.51 1413.02L1649.61 1542.27L1608.52 1584.53L1551.66 1598.82L1469.75 1482.16ZM1541.95 1514.61L1531.68 1499.87L1589.05 1466.77L1581.74 1451.07L1506.58 1494.44L1536.92 1537.81L1588.96 1507.77L1598.39 1528.37L1584.44 1542.53L1564.93 1547.66L1556.91 1536.25L1542.03 1544.84L1557.64 1567.53L1593.34 1557.94L1619.26 1532.01L1596.65 1483.03L1541.95 1514.61Z" fill="black"/>
<path d="M1703.75 1482.16L1823.51 1413.02L1883.61 1542.27L1842.52 1584.53L1785.66 1598.82L1703.75 1482.16ZM1775.95 1514.61L1765.68 1499.87L1823.05 1466.77L1815.74 1451.07L1740.58 1494.44L1770.92 1537.81L1822.96 1507.77L1832.39 1528.37L1818.44 1542.53L1798.93 1547.66L1790.91 1536.25L1776.03 1544.84L1791.64 1567.53L1827.34 1557.94L1853.26 1532.01L1830.65 1483.03L1775.95 1514.61Z" fill="black"/>
<path d="M1937.75 1482.16L2057.51 1413.02L2117.61 1542.27L2076.52 1584.53L2019.66 1598.82L1937.75 1482.16ZM2009.95 1514.61L1999.68 1499.87L2057.05 1466.77L2049.74 1451.07L1974.58 1494.44L2004.92 1537.81L2056.96 1507.77L2066.39 1528.37L2052.44 1542.53L2032.93 1547.66L2024.91 1536.25L2010.03 1544.84L2025.64 1567.53L2061.34 1557.94L2087.26 1532.01L2064.65 1483.03L2009.95 1514.61Z" fill="black"/>
<path d="M2171.75 1482.16L2291.51 1413.02L2351.61 1542.27L2310.52 1584.53L2253.66 1598.82L2171.75 1482.16ZM2243.95 1514.61L2233.68 1499.87L2291.05 1466.77L2283.74 1451.07L2208.58 1494.44L2238.92 1537.81L2290.96 1507.77L2300.39 1528.37L2286.44 1542.53L2266.93 1547.66L2258.91 1536.25L2244.03 1544.84L2259.64 1567.53L2295.34 1557.94L2321.26 1532.01L2298.65 1483.03L2243.95 1514.61Z" fill="black"/>
<path d="M2397.75 1482.16L2517.51 1413.02L2577.61 1542.27L2536.52 1584.53L2479.66 1598.82L2397.75 1482.16ZM2469.95 1514.61L2459.68 1499.87L2517.05 1466.77L2509.74 1451.07L2434.58 1494.44L2464.92 1537.81L2516.96 1507.77L2526.39 1528.37L2512.44 1542.53L2492.93 1547.66L2484.91 1536.25L2470.03 1544.84L2485.64 1567.53L2521.34 1557.94L2547.26 1532.01L2524.65 1483.03L2469.95 1514.61Z" fill="black"/>
<path d="M2631.75 1482.16L2751.51 1413.02L2811.61 1542.27L2770.52 1584.53L2713.66 1598.82L2631.75 1482.16ZM2703.95 1514.61L2693.68 1499.87L2751.05 1466.77L2743.74 1451.07L2668.58 1494.44L2698.92 1537.81L2750.96 1507.77L2760.39 1528.37L2746.44 1542.53L2726.93 1547.66L2718.91 1536.25L2704.03 1544.84L2719.64 1567.53L2755.34 1557.94L2781.26 1532.01L2758.65 1483.03L2703.95 1514.61Z" fill="black"/>
<path d="M2865.75 1482.16L2985.51 1413.02L3045.61 1542.27L3004.52 1584.53L2947.66 1598.82L2865.75 1482.16ZM2937.95 1514.61L2927.68 1499.87L2985.05 1466.77L2977.74 1451.07L2902.58 1494.44L2932.92 1537.81L2984.96 1507.77L2994.39 1528.37L2980.44 1542.53L2960.93 1547.66L2952.91 1536.25L2938.03 1544.84L2953.64 1567.53L2989.34 1557.94L3015.26 1532.01L2992.65 1483.03L2937.95 1514.61Z" fill="black"/>
<path d="M3099.75 1482.16L3219.51 1413.02L3279.61 1542.27L3238.52 1584.53L3181.66 1598.82L3099.75 1482.16ZM3171.95 1514.61L3161.68 1499.87L3219.05 1466.77L3211.74 1451.07L3136.58 1494.44L3166.92 1537.81L3218.96 1507.77L3228.39 1528.37L3214.44 1542.53L3194.93 1547.66L3186.91 1536.25L3172.03 1544.84L3187.64 1567.53L3223.34 1557.94L3249.26 1532.01L3226.65 1483.03L3171.95 1514.61Z" fill="black"/>
<path d="M3325.75 1482.16L3445.51 1413.02L3505.61 1542.27L3464.52 1584.53L3407.66 1598.82L3325.75 1482.16ZM3397.95 1514.61L3387.68 1499.87L3445.05 1466.77L3437.74 1451.07L3362.58 1494.44L3392.92 1537.81L3444.96 1507.77L3454.39 1528.37L3440.44 1542.53L3420.93 1547.66L3412.91 1536.25L3398.03 1544.84L3413.64 1567.53L3449.34 1557.94L3475.26 1532.01L3452.65 1483.03L3397.95 1514.61Z" fill="black"/>
<path d="M3559.75 1482.16L3679.51 1413.02L3739.61 1542.27L3698.52 1584.53L3641.66 1598.82L3559.75 1482.16ZM3631.95 1514.61L3621.68 1499.87L3679.05 1466.77L3671.74 1451.07L3596.58 1494.44L3626.92 1537.81L3678.96 1507.77L3688.39 1528.37L3674.44 1542.53L3654.93 1547.66L3646.91 1536.25L3632.03 1544.84L3647.64 1567.53L3683.34 1557.94L3709.26 1532.01L3686.65 1483.03L3631.95 1514.61Z" fill="black"/>
<path d="M81.7535 1700.16L201.511 1631.02L261.608 1760.27L220.519 1802.53L163.657 1816.82L81.7535 1700.16ZM153.946 1732.61L143.683 1717.87L201.047 1684.77L193.735 1669.07L118.578 1712.44L148.919 1755.81L200.959 1725.77L210.389 1746.37L196.445 1760.53L176.928 1765.66L168.909 1754.25L154.032 1762.84L169.641 1785.53L205.342 1775.94L231.263 1750.01L208.648 1701.03L153.946 1732.61Z" fill="black"/>
<path d="M315.754 1700.16L435.511 1631.02L495.608 1760.27L454.519 1802.53L397.657 1816.82L315.754 1700.16ZM387.946 1732.61L377.684 1717.87L435.047 1684.77L427.735 1669.07L352.578 1712.44L382.919 1755.81L434.959 1725.77L444.389 1746.37L430.445 1760.53L410.928 1765.66L402.909 1754.25L388.032 1762.84L403.641 1785.53L439.342 1775.94L465.263 1750.01L442.648 1701.03L387.946 1732.61Z" fill="black"/>
<path d="M541.754 1700.16L661.511 1631.02L721.608 1760.27L680.519 1802.53L623.657 1816.82L541.754 1700.16ZM613.946 1732.61L603.684 1717.87L661.047 1684.77L653.735 1669.07L578.578 1712.44L608.919 1755.81L660.959 1725.77L670.389 1746.37L656.445 1760.53L636.928 1765.66L628.909 1754.25L614.032 1762.84L629.641 1785.53L665.342 1775.94L691.263 1750.01L668.648 1701.03L613.946 1732.61Z" fill="black"/>
<path d="M775.754 1700.16L895.511 1631.02L955.608 1760.27L914.519 1802.53L857.657 1816.82L775.754 1700.16ZM847.946 1732.61L837.684 1717.87L895.047 1684.77L887.735 1669.07L812.578 1712.44L842.919 1755.81L894.959 1725.77L904.389 1746.37L890.445 1760.53L870.928 1765.66L862.909 1754.25L848.032 1762.84L863.641 1785.53L899.342 1775.94L925.263 1750.01L902.648 1701.03L847.946 1732.61Z" fill="black"/>
<path d="M1009.75 1700.16L1129.51 1631.02L1189.61 1760.27L1148.52 1802.53L1091.66 1816.82L1009.75 1700.16ZM1081.95 1732.61L1071.68 1717.87L1129.05 1684.77L1121.74 1669.07L1046.58 1712.44L1076.92 1755.81L1128.96 1725.77L1138.39 1746.37L1124.44 1760.53L1104.93 1765.66L1096.91 1754.25L1082.03 1762.84L1097.64 1785.53L1133.34 1775.94L1159.26 1750.01L1136.65 1701.03L1081.95 1732.61Z" fill="black"/>
<path d="M1243.75 1700.16L1363.51 1631.02L1423.61 1760.27L1382.52 1802.53L1325.66 1816.82L1243.75 1700.16ZM1315.95 1732.61L1305.68 1717.87L1363.05 1684.77L1355.74 1669.07L1280.58 1712.44L1310.92 1755.81L1362.96 1725.77L1372.39 1746.37L1358.44 1760.53L1338.93 1765.66L1330.91 1754.25L1316.03 1762.84L1331.64 1785.53L1367.34 1775.94L1393.26 1750.01L1370.65 1701.03L1315.95 1732.61Z" fill="black"/>
<path d="M1469.75 1700.16L1589.51 1631.02L1649.61 1760.27L1608.52 1802.53L1551.66 1816.82L1469.75 1700.16ZM1541.95 1732.61L1531.68 1717.87L1589.05 1684.77L1581.74 1669.07L1506.58 1712.44L1536.92 1755.81L1588.96 1725.77L1598.39 1746.37L1584.44 1760.53L1564.93 1765.66L1556.91 1754.25L1542.03 1762.84L1557.64 1785.53L1593.34 1775.94L1619.26 1750.01L1596.65 1701.03L1541.95 1732.61Z" fill="black"/>
<path d="M1703.75 1700.16L1823.51 1631.02L1883.61 1760.27L1842.52 1802.53L1785.66 1816.82L1703.75 1700.16ZM1775.95 1732.61L1765.68 1717.87L1823.05 1684.77L1815.74 1669.07L1740.58 1712.44L1770.92 1755.81L1822.96 1725.77L1832.39 1746.37L1818.44 1760.53L1798.93 1765.66L1790.91 1754.25L1776.03 1762.84L1791.64 1785.53L1827.34 1775.94L1853.26 1750.01L1830.65 1701.03L1775.95 1732.61Z" fill="black"/>
<path d="M1937.75 1700.16L2057.51 1631.02L2117.61 1760.27L2076.52 1802.53L2019.66 1816.82L1937.75 1700.16ZM2009.95 1732.61L1999.68 1717.87L2057.05 1684.77L2049.74 1669.07L1974.58 1712.44L2004.92 1755.81L2056.96 1725.77L2066.39 1746.37L2052.44 1760.53L2032.93 1765.66L2024.91 1754.25L2010.03 1762.84L2025.64 1785.53L2061.34 1775.94L2087.26 1750.01L2064.65 1701.03L2009.95 1732.61Z" fill="black"/>
<path d="M2171.75 1700.16L2291.51 1631.02L2351.61 1760.27L2310.52 1802.53L2253.66 1816.82L2171.75 1700.16ZM2243.95 1732.61L2233.68 1717.87L2291.05 1684.77L2283.74 1669.07L2208.58 1712.44L2238.92 1755.81L2290.96 1725.77L2300.39 1746.37L2286.44 1760.53L2266.93 1765.66L2258.91 1754.25L2244.03 1762.84L2259.64 1785.53L2295.34 1775.94L2321.26 1750.01L2298.65 1701.03L2243.95 1732.61Z" fill="black"/>
<path d="M2397.75 1700.16L2517.51 1631.02L2577.61 1760.27L2536.52 1802.53L2479.66 1816.82L2397.75 1700.16ZM2469.95 1732.61L2459.68 1717.87L2517.05 1684.77L2509.74 1669.07L2434.58 1712.44L2464.92 1755.81L2516.96 1725.77L2526.39 1746.37L2512.44 1760.53L2492.93 1765.66L2484.91 1754.25L2470.03 1762.84L2485.64 1785.53L2521.34 1775.94L2547.26 1750.01L2524.65 1701.03L2469.95 1732.61Z" fill="black"/>
<path d="M2631.75 1700.16L2751.51 1631.02L2811.61 1760.27L2770.52 1802.53L2713.66 1816.82L2631.75 1700.16ZM2703.95 1732.61L2693.68 1717.87L2751.05 1684.77L2743.74 1669.07L2668.58 1712.44L2698.92 1755.81L2750.96 1725.77L2760.39 1746.37L2746.44 1760.53L2726.93 1765.66L2718.91 1754.25L2704.03 1762.84L2719.64 1785.53L2755.34 1775.94L2781.26 1750.01L2758.65 1701.03L2703.95 1732.61Z" fill="black"/>
<path d="M2865.75 1700.16L2985.51 1631.02L3045.61 1760.27L3004.52 1802.53L2947.66 1816.82L2865.75 1700.16ZM2937.95 1732.61L2927.68 1717.87L2985.05 1684.77L2977.74 1669.07L2902.58 1712.44L2932.92 1755.81L2984.96 1725.77L2994.39 1746.37L2980.44 1760.53L2960.93 1765.66L2952.91 1754.25L2938.03 1762.84L2953.64 1785.53L2989.34 1775.94L3015.26 1750.01L2992.65 1701.03L2937.95 1732.61Z" fill="black"/>
<path d="M3099.75 1700.16L3219.51 1631.02L3279.61 1760.27L3238.52 1802.53L3181.66 1816.82L3099.75 1700.16ZM3171.95 1732.61L3161.68 1717.87L3219.05 1684.77L3211.74 1669.07L3136.58 1712.44L3166.92 1755.81L3218.96 1725.77L3228.39 1746.37L3214.44 1760.53L3194.93 1765.66L3186.91 1754.25L3172.03 1762.84L3187.64 1785.53L3223.34 1775.94L3249.26 1750.01L3226.65 1701.03L3171.95 1732.61Z" fill="black"/>
<path d="M3325.75 1700.16L3445.51 1631.02L3505.61 1760.27L3464.52 1802.53L3407.66 1816.82L3325.75 1700.16ZM3397.95 1732.61L3387.68 1717.87L3445.05 1684.77L3437.74 1669.07L3362.58 1712.44L3392.92 1755.81L3444.96 1725.77L3454.39 1746.37L3440.44 1760.53L3420.93 1765.66L3412.91 1754.25L3398.03 1762.84L3413.64 1785.53L3449.34 1775.94L3475.26 1750.01L3452.65 1701.03L3397.95 1732.61Z" fill="black"/>
<path d="M3559.75 1700.16L3679.51 1631.02L3739.61 1760.27L3698.52 1802.53L3641.66 1816.82L3559.75 1700.16ZM3631.95 1732.61L3621.68 1717.87L3679.05 1684.77L3671.74 1669.07L3596.58 1712.44L3626.92 1755.81L3678.96 1725.77L3688.39 1746.37L3674.44 1760.53L3654.93 1765.66L3646.91 1754.25L3632.03 1762.84L3647.64 1785.53L3683.34 1775.94L3709.26 1750.01L3686.65 1701.03L3631.95 1732.61Z" fill="black"/>
<path d="M81.7535 1918.16L201.511 1849.02L261.608 1978.27L220.519 2020.53L163.657 2034.82L81.7535 1918.16ZM153.946 1950.61L143.683 1935.87L201.047 1902.77L193.735 1887.07L118.578 1930.44L148.919 1973.81L200.959 1943.77L210.389 1964.37L196.445 1978.53L176.928 1983.66L168.909 1972.25L154.032 1980.84L169.641 2003.53L205.342 1993.94L231.263 1968.01L208.648 1919.03L153.946 1950.61Z" fill="black"/>
<path d="M315.754 1918.16L435.511 1849.02L495.608 1978.27L454.519 2020.53L397.657 2034.82L315.754 1918.16ZM387.946 1950.61L377.684 1935.87L435.047 1902.77L427.735 1887.07L352.578 1930.44L382.919 1973.81L434.959 1943.77L444.389 1964.37L430.445 1978.53L410.928 1983.66L402.909 1972.25L388.032 1980.84L403.641 2003.53L439.342 1993.94L465.263 1968.01L442.648 1919.03L387.946 1950.61Z" fill="black"/>
<path d="M541.754 1918.16L661.511 1849.02L721.608 1978.27L680.519 2020.53L623.657 2034.82L541.754 1918.16ZM613.946 1950.61L603.684 1935.87L661.047 1902.77L653.735 1887.07L578.578 1930.44L608.919 1973.81L660.959 1943.77L670.389 1964.37L656.445 1978.53L636.928 1983.66L628.909 1972.25L614.032 1980.84L629.641 2003.53L665.342 1993.94L691.263 1968.01L668.648 1919.03L613.946 1950.61Z" fill="black"/>
<path d="M775.754 1918.16L895.511 1849.02L955.608 1978.27L914.519 2020.53L857.657 2034.82L775.754 1918.16ZM847.946 1950.61L837.684 1935.87L895.047 1902.77L887.735 1887.07L812.578 1930.44L842.919 1973.81L894.959 1943.77L904.389 1964.37L890.445 1978.53L870.928 1983.66L862.909 1972.25L848.032 1980.84L863.641 2003.53L899.342 1993.94L925.263 1968.01L902.648 1919.03L847.946 1950.61Z" fill="black"/>
<path d="M1009.75 1918.16L1129.51 1849.02L1189.61 1978.27L1148.52 2020.53L1091.66 2034.82L1009.75 1918.16ZM1081.95 1950.61L1071.68 1935.87L1129.05 1902.77L1121.74 1887.07L1046.58 1930.44L1076.92 1973.81L1128.96 1943.77L1138.39 1964.37L1124.44 1978.53L1104.93 1983.66L1096.91 1972.25L1082.03 1980.84L1097.64 2003.53L1133.34 1993.94L1159.26 1968.01L1136.65 1919.03L1081.95 1950.61Z" fill="black"/>
<path d="M1243.75 1918.16L1363.51 1849.02L1423.61 1978.27L1382.52 2020.53L1325.66 2034.82L1243.75 1918.16ZM1315.95 1950.61L1305.68 1935.87L1363.05 1902.77L1355.74 1887.07L1280.58 1930.44L1310.92 1973.81L1362.96 1943.77L1372.39 1964.37L1358.44 1978.53L1338.93 1983.66L1330.91 1972.25L1316.03 1980.84L1331.64 2003.53L1367.34 1993.94L1393.26 1968.01L1370.65 1919.03L1315.95 1950.61Z" fill="black"/>
<path d="M1469.75 1918.16L1589.51 1849.02L1649.61 1978.27L1608.52 2020.53L1551.66 2034.82L1469.75 1918.16ZM1541.95 1950.61L1531.68 1935.87L1589.05 1902.77L1581.74 1887.07L1506.58 1930.44L1536.92 1973.81L1588.96 1943.77L1598.39 1964.37L1584.44 1978.53L1564.93 1983.66L1556.91 1972.25L1542.03 1980.84L1557.64 2003.53L1593.34 1993.94L1619.26 1968.01L1596.65 1919.03L1541.95 1950.61Z" fill="black"/>
<path d="M1703.75 1918.16L1823.51 1849.02L1883.61 1978.27L1842.52 2020.53L1785.66 2034.82L1703.75 1918.16ZM1775.95 1950.61L1765.68 1935.87L1823.05 1902.77L1815.74 1887.07L1740.58 1930.44L1770.92 1973.81L1822.96 1943.77L1832.39 1964.37L1818.44 1978.53L1798.93 1983.66L1790.91 1972.25L1776.03 1980.84L1791.64 2003.53L1827.34 1993.94L1853.26 1968.01L1830.65 1919.03L1775.95 1950.61Z" fill="black"/>
<path d="M1937.75 1918.16L2057.51 1849.02L2117.61 1978.27L2076.52 2020.53L2019.66 2034.82L1937.75 1918.16ZM2009.95 1950.61L1999.68 1935.87L2057.05 1902.77L2049.74 1887.07L1974.58 1930.44L2004.92 1973.81L2056.96 1943.77L2066.39 1964.37L2052.44 1978.53L2032.93 1983.66L2024.91 1972.25L2010.03 1980.84L2025.64 2003.53L2061.34 1993.94L2087.26 1968.01L2064.65 1919.03L2009.95 1950.61Z" fill="black"/>
<path d="M2171.75 1918.16L2291.51 1849.02L2351.61 1978.27L2310.52 2020.53L2253.66 2034.82L2171.75 1918.16ZM2243.95 1950.61L2233.68 1935.87L2291.05 1902.77L2283.74 1887.07L2208.58 1930.44L2238.92 1973.81L2290.96 1943.77L2300.39 1964.37L2286.44 1978.53L2266.93 1983.66L2258.91 1972.25L2244.03 1980.84L2259.64 2003.53L2295.34 1993.94L2321.26 1968.01L2298.65 1919.03L2243.95 1950.61Z" fill="black"/>
<path d="M2397.75 1918.16L2517.51 1849.02L2577.61 1978.27L2536.52 2020.53L2479.66 2034.82L2397.75 1918.16ZM2469.95 1950.61L2459.68 1935.87L2517.05 1902.77L2509.74 1887.07L2434.58 1930.44L2464.92 1973.81L2516.96 1943.77L2526.39 1964.37L2512.44 1978.53L2492.93 1983.66L2484.91 1972.25L2470.03 1980.84L2485.64 2003.53L2521.34 1993.94L2547.26 1968.01L2524.65 1919.03L2469.95 1950.61Z" fill="black"/>
<path d="M2631.75 1918.16L2751.51 1849.02L2811.61 1978.27L2770.52 2020.53L2713.66 2034.82L2631.75 1918.16ZM2703.95 1950.61L2693.68 1935.87L2751.05 1902.77L2743.74 1887.07L2668.58 1930.44L2698.92 1973.81L2750.96 1943.77L2760.39 1964.37L2746.44 1978.53L2726.93 1983.66L2718.91 1972.25L2704.03 1980.84L2719.64 2003.53L2755.34 1993.94L2781.26 1968.01L2758.65 1919.03L2703.95 1950.61Z" fill="black"/>
<path d="M2865.75 1918.16L2985.51 1849.02L3045.61 1978.27L3004.52 2020.53L2947.66 2034.82L2865.75 1918.16ZM2937.95 1950.61L2927.68 1935.87L2985.05 1902.77L2977.74 1887.07L2902.58 1930.44L2932.92 1973.81L2984.96 1943.77L2994.39 1964.37L2980.44 1978.53L2960.93 1983.66L2952.91 1972.25L2938.03 1980.84L2953.64 2003.53L2989.34 1993.94L3015.26 1968.01L2992.65 1919.03L2937.95 1950.61Z" fill="black"/>
<path d="M3099.75 1918.16L3219.51 1849.02L3279.61 1978.27L3238.52 2020.53L3181.66 2034.82L3099.75 1918.16ZM3171.95 1950.61L3161.68 1935.87L3219.05 1902.77L3211.74 1887.07L3136.58 1930.44L3166.92 1973.81L3218.96 1943.77L3228.39 1964.37L3214.44 1978.53L3194.93 1983.66L3186.91 1972.25L3172.03 1980.84L3187.64 2003.53L3223.34 1993.94L3249.26 1968.01L3226.65 1919.03L3171.95 1950.61Z" fill="black"/>
<path d="M3325.75 1918.16L3445.51 1849.02L3505.61 1978.27L3464.52 2020.53L3407.66 2034.82L3325.75 1918.16ZM3397.95 1950.61L3387.68 1935.87L3445.05 1902.77L3437.74 1887.07L3362.58 1930.44L3392.92 1973.81L3444.96 1943.77L3454.39 1964.37L3440.44 1978.53L3420.93 1983.66L3412.91 1972.25L3398.03 1980.84L3413.64 2003.53L3449.34 1993.94L3475.26 1968.01L3452.65 1919.03L3397.95 1950.61Z" fill="black"/>
<path d="M3559.75 1918.16L3679.51 1849.02L3739.61 1978.27L3698.52 2020.53L3641.66 2034.82L3559.75 1918.16ZM3631.95 1950.61L3621.68 1935.87L3679.05 1902.77L3671.74 1887.07L3596.58 1930.44L3626.92 1973.81L3678.96 1943.77L3688.39 1964.37L3674.44 1978.53L3654.93 1983.66L3646.91 1972.25L3632.03 1980.84L3647.64 2003.53L3683.34 1993.94L3709.26 1968.01L3686.65 1919.03L3631.95 1950.61Z" fill="black"/>
</svg>
